# xmcd
#
# Track frame offsets:
#	150
#	11686
#	21376
#	33574
#	43459
#	54979
#	66091
#	77981
#	90685
#	101144
#	112621
#	126846
#	137233
#	149601
#	162886
#	174890
#	188061
#	200061
#	209569
#	219805
#	233071
#	241340
#	255620
#	266687
#	277560
#	288768
#	298358
#	311012
#
# Disc length: 4272 seconds
#
# Revision: 1
# Processed by: cddbd v1.5.2PL0 Copyright (c) Steve Scherf et al.
# Submitted via: audiograbber 1.83.01
#
DISCID=a310ae1c
DTITLE=Dolly Parton and Porter Wagoner - Just Between You And Me [CD 3)
DYEAR=2014
DGENRE=Country
TTITLE0=Once More
TTITLE1=Ragged Angel
TTITLE2=Before Our Weekness Gets Too Strong
TTITLE3=Let's Live For Tonight
TTITLE4=One Day At A Time
TTITLE5=Thoughtfulness
TTITLE6=There'll Be Love
TTITLE7=Daddy Did His Best
TTITLE8=Possum Holler
TTITLE9=The Fighting Kind
TTITLE10=All I Need Is You
TTITLE11=Curse Of The Wild Weed Flower
TTITLE12=Today, Tomorrow And Forever
TTITLE13=The Flame
TTITLE14=Her And The Car And The Mobile Home
TTITLE15=Is It Real
TTITLE16=Two Of A Kind
TTITLE17=The Pain Of Loving You
TTITLE18=Better Move It On Home
TTITLE19=The Right Combination
TTITLE20=Burning The Midnight Oil
TTITLE21=Love's All Over
TTITLE22=Tkae Away
TTITLE23=You And Me, Her And Him
TTITLE24=How Close They Must Be
TTITLE25=On And On
TTITLE26=More Than Words Can Tell
TTITLE27=In Each Love Some Pain Must Fall
EXTD=
EXTT0=
EXTT1=
EXTT2=
EXTT3=
EXTT4=
EXTT5=
EXTT6=
EXTT7=
EXTT8=
EXTT9=
EXTT10=
EXTT11=
EXTT12=
EXTT13=
EXTT14=
EXTT15=
EXTT16=
EXTT17=
EXTT18=
EXTT19=
EXTT20=
EXTT21=
EXTT22=
EXTT23=
EXTT24=
EXTT25=
EXTT26=
EXTT27=
PLAYORDER=
